#!OML:ASF H:\Terrain\Patient Classification 1\Animal1\Tuesday\Animal1.ASF
:FULLY-SPECIFIED
:DEGREES
2256
root 19.9621 15.2492 -5.76803 -170.162 -14.935 -171.717
lowerback 13.1587 -1.04144 7.59144
upperback 0.90753 -0.352635 1.71838
thorax -6.46085 -0.452269 -2.38561
lowerneck -8.08307 7.90497 0.854002
upperneck -2.29609 10.3238 -4.08656
head 0.896427 5.01476 -1.06364
rclavicle -2.5842e-015 2.46493e-014
rhumerus -11.8031 32.685 -87.6244
rradius 110.207
rwrist 13.7462
rhand 52.0745 -6.77506
rfingers 7.12502
rthumb 71.2466 -358.058
lclavicle -2.5842e-015 2.46493e-014
lhumerus -22.1287 -23.8784 98.389
lradius 109.756
lwrist -53.4634
lhand -127.213 -479.41
lfingers 7.12502
lthumb 71.6598 -309.859
rfemur -49.571 -0.649033 20.6866
rtibia 71.8133
rfoot -2.2007 -21.2087
rtoes 3.87112
lfemur -40.2049 -11.9139 -30.3236
ltibia 48.0116
lfoot -13.5647 9.67401
ltoes 27.1575
2257
root 19.9787 15.2482 -5.94322 -169.992 -15.515 -171.816
lowerback 13.8097 -0.882943 6.95637
upperback 0.357687 -0.108043 1.98453
thorax -7.39329 -0.341112 -1.78141
lowerneck -7.95854 7.84698 0.743547
upperneck -1.97626 10.2842 -4.37617
head 0.988432 4.99425 -1.13413
rclavicle -2.13694e-015 3.71727e-014
rhumerus -12.7329 32.7446 -87.7989
rradius 109.947
rwrist 14.4277
rhand 53.9356 -5.3958
rfingers 7.12502
rthumb 72.2866 -351.99
lclavicle -2.13694e-015 3.71727e-014
lhumerus -23.1769 -23.5387 99.4831
lradius 109.874
lwrist -54.253
lhand -126.559 -478.72
lfingers 7.12502
lthumb 72.0229 -310.828
rfemur -50.1048 1.25087 19.5381
rtibia 68.4223
rfoot -5.28657 -21.7572
rtoes 8.15682
lfemur -39.8343 -12.1869 -30.2763
ltibia 48.3327
lfoot -14.5707 8.64961
ltoes 26.3235
2258
root 19.9857 15.2631 -6.11226 -169.967 -16.1029 -172.005
lowerback 13.864 -0.773618 6.71786
upperback 0.385517 0.00208777 1.88425
thorax -7.38419 -0.277403 -1.77718
lowerneck -8.01956 7.80773 0.680299
upperneck -2.14126 10.2241 -4.34211
head 0.938837 4.96393 -1.11714
rclavicle 1.54555e-014 2.80286e-014
rhumerus -12.576 32.6119 -87.8525
rradius 109.718
rwrist 15.0792
rhand 53.5604 -3.99391
rfingers 7.12502
rthumb 72.0873 -351.577
lclavicle 1.54555e-014 2.80286e-014
lhumerus -23.3495 -23.5287 99.68
lradius 110.015
lwrist -54.7919
lhand -126.356 -478.105
lfingers 7.12502
lthumb 72.1324 -310.742
rfemur -50.2065 3.17093 18.1675
rtibia 64.6951
rfoot -8.91854 -21.2324
rtoes 17.3694
lfemur -39.1198 -12.4745 -30.3619
ltibia 48.399
lfoot -15.1515 9.1096
ltoes 26.5539
2259
root 19.9761 15.3014 -6.27926 -170 -16.8737 -172.213
lowerback 13.947 -0.776771 6.60689
upperback 0.421043 -0.0166778 1.78695
thorax -7.3939 -0.281825 -1.81517
lowerneck -7.97057 7.78124 0.57877
upperneck -2.40132 10.1795 -4.29542
head 0.837991 4.94408 -1.09599
rclavicle 3.86139e-014 -1.63003e-014
rhumerus -12.5149 32.7057 -87.9342
rradius 109.663
rwrist 15.599
rhand 52.1401 -2.35692
rfingers 7.12502
rthumb 71.2853 -353.483
lclavicle 3.86139e-014 -1.63003e-014
lhumerus -23.4351 -23.4064 99.7741
lradius 110.056
lwrist -55.2953
lhand -126.864 -478.541
lfingers 7.12502
lthumb 71.8553 -309.866
rfemur -49.9899 4.94833 16.7308
rtibia 60.7242
rfoot -11.5531 -20.8481
rtoes 21.6847
lfemur -38.1285 -12.7698 -30.5179
ltibia 48.2356
lfoot -15.6081 9.51178
ltoes 25.8241
2260
root 19.9578 15.3364 -6.44898 -170.103 -17.7509 -172.117
lowerback 13.8116 -0.794918 6.74175
upperback 0.548116 -0.0409276 1.92223
thorax -7.18237 -0.292784 -1.74338
lowerneck -8.11143 7.75477 0.269097
upperneck -2.48767 10.1596 -4.34325
head 0.819014 4.93126 -1.05851
rclavicle 4.04527e-014 7.55382e-015
rhumerus -12.2742 32.9381 -87.5828
rradius 109.603
rwrist 15.6655
rhand 49.7662 -3.07259
rfingers 7.12502
rthumb 69.7978 -359.442
lclavicle 4.04527e-014 7.55382e-015
lhumerus -23.3599 -23.0512 100.028
lradius 109.98
lwrist -55.7531
lhand -127.16 -479.951
lfingers 7.12502
lthumb 71.6893 -310.53
rfemur -49.59 6.64977 15.6295
rtibia 56.5642
rfoot -12.251 -21.3223
rtoes 17.7783
lfemur -37.1722 -12.9585 -30.3954
ltibia 48.0162
lfoot -16.3631 8.68836
ltoes 28.1681
2261
root 19.9419 15.3529 -6.6175 -170.296 -18.6213 -172.009
lowerback 13.6104 -0.900007 7.27965
upperback 0.798737 -0.149264 1.74845
thorax -6.81013 -0.352472 -2.21308
lowerneck -8.39022 7.74467 0.209361
upperneck -2.51245 10.1453 -4.25472
head 0.848738 4.92027 -1.01217
rclavicle 3.70733e-014 -5.10877e-014
rhumerus -11.7653 33.0764 -87.6097
rradius 109.485
rwrist 15.4177
rhand 46.9571 -5.00269
rfingers 7.12502
rthumb 67.845 -366.592
lclavicle 3.70733e-014 -5.10877e-014
lhumerus -23.2045 -22.8605 99.7383
lradius 109.998
lwrist -55.8967
lhand -125.395 -479.875
lfingers 7.12502
lthumb 72.6283 -315.103
rfemur -48.9526 8.18178 14.6901
rtibia 52.5238
rfoot -12.8239 -21.6955
rtoes 14.2048
lfemur -36.2131 -13.1329 -30.2791
ltibia 47.8542
lfoot -16.8029 7.85312
ltoes 30.2194
